<?xml version="1.0" standalone="no"?>
<!DOCTYPE svg PUBLIC "-//W3C//DTD SVG 20010904//EN"
 "http://www.w3.org/TR/2001/REC-SVG-20010904/DTD/svg10.dtd">
<svg version="1.0" xmlns="http://www.w3.org/2000/svg"
 width="1796.000000pt" height="346.000000pt" viewBox="0 0 1796.000000 346.000000"
 preserveAspectRatio="xMidYMid meet">
<metadata>
Created by potrace 1.16, written by Peter Selinger 2001-2019
</metadata>
<g transform="translate(0.000000,346.000000) scale(0.100000,-0.100000)"
fill="#000000" stroke="none">
<path d="M2110 2550 c0 -30 1 -30 54 -30 l54 0 4 -197 c2 -165 6 -203 20 -230
23 -42 71 -57 149 -48 64 7 75 18 65 58 -5 20 -11 22 -68 22 -87 0 -88 1 -88
253 l0 202 -95 0 -95 0 0 -30z"/>
<path d="M6170 2479 l0 -102 -25 27 c-20 22 -33 26 -77 26 -106 0 -152 -59
-153 -195 0 -129 49 -190 152 -189 48 0 59 4 79 28 l24 27 0 -25 c0 -24 4 -26
40 -26 l40 0 0 265 0 265 -40 0 -40 0 0 -101z m-37 -133 c40 -30 51 -166 18
-207 -27 -33 -104 -34 -131 -2 -36 45 -33 161 6 204 20 22 80 25 107 5z"/>
<path d="M845 2503 c7 -27 39 -139 71 -250 l57 -203 57 0 58 0 51 183 c28 100
60 212 70 250 l20 67 -42 0 -42 0 -55 -210 c-30 -115 -57 -210 -60 -210 -3 0
-30 94 -60 210 l-55 210 -42 0 -42 0 14 -47z"/>
<path d="M5090 2300 l0 -250 35 0 35 0 0 95 0 95 50 0 50 0 47 -95 48 -95 42
0 c24 0 43 2 43 5 0 3 -21 47 -47 99 l-47 95 27 25 c35 33 48 69 48 134 0 61
-17 94 -64 122 -27 17 -51 20 -149 20 l-118 0 0 -250z m224 159 c21 -16 26
-29 26 -63 0 -62 -24 -79 -111 -84 l-69 -4 0 86 0 86 64 0 c49 0 69 -5 90 -21z"/>
<path d="M3040 2485 l0 -55 -45 0 c-45 0 -45 0 -45 -35 0 -35 0 -35 45 -35
l45 0 0 -97 c0 -125 12 -168 53 -193 39 -24 104 -34 162 -26 43 7 45 9 45 42
l0 34 -67 0 c-38 0 -73 4 -79 8 -25 16 -34 55 -34 141 l0 91 85 0 85 0 0 35 0
35 -85 0 -85 0 0 55 0 55 -40 0 -40 0 0 -55z"/>
<path d="M1328 2424 c-5 -4 -8 -20 -8 -36 0 -26 3 -28 43 -28 91 -1 147 -27
147 -69 0 -13 -14 -16 -72 -16 -90 -1 -133 -21 -155 -72 -17 -43 -10 -96 17
-123 45 -45 153 -48 197 -4 l23 23 6 -25 c6 -22 11 -24 65 -24 l59 0 0 35 c0
32 -3 35 -29 35 l-29 0 -3 108 c-5 121 -16 150 -72 178 -34 18 -176 32 -189
18z"/>
<path d="M1720 2278 c0 -177 10 -207 76 -228 45 -15 108 0 127 30 16 27 27 25
27 -5 0 -24 3 -25 60 -25 l60 0 0 35 c0 31 -3 35 -25 35 l-25 0 0 155 0 155
-40 0 -40 0 0 -129 c0 -115 -2 -131 -21 -155 -14 -18 -30 -26 -52 -26 -59 0
-62 6 -67 162 l-5 143 -37 3 -38 3 0 -153z"/>
<path d="M2630 2414 c-44 -18 -61 -44 -62 -97 -1 -52 30 -80 110 -103 103 -28
107 -30 110 -52 5 -33 -29 -44 -129 -40 -94 3 -99 1 -99 -47 0 -21 6 -24 55
-30 131 -17 240 17 256 80 19 67 -18 118 -101 141 -110 31 -120 35 -120 53 0
27 43 41 130 41 72 0 80 2 80 19 0 11 3 26 6 35 5 14 -7 16 -97 15 -68 0 -116
-5 -139 -15z"/>
<path d="M3472 2410 c-51 -31 -75 -95 -70 -186 2 -54 9 -80 24 -101 48 -65
124 -91 229 -78 47 6 55 10 55 29 0 38 -15 49 -56 43 -61 -7 -131 11 -154 40
-11 14 -20 29 -20 34 0 5 55 10 123 11 l122 3 -1 60 c-2 112 -52 165 -159 165
-43 0 -70 -6 -93 -20z"/>
<path d="M3850 2395 l0 -35 60 0 60 0 0 -120 0 -120 -70 0 -70 0 0 -35 0 -35
165 0 165 0 0 35 0 35 -55 0 -55 0 0 155 0 155 -100 0 -100 0 0 -35z"/>
<path d="M4250 2240 l0 -190 40 0 40 0 0 114 c0 120 11 170 40 186 30 16 68
12 90 -10 18 -18 20 -33 20 -155 l0 -135 40 0 40 0 0 140 c0 199 -22 240 -125
240 -54 0 -94 -20 -96 -48 0 -9 -5 -2 -10 16 -8 28 -14 32 -44 32 l-35 0 0
-190z"/>
<path d="M5600 2423 c-29 -11 -70 -57 -81 -91 -17 -51 -14 -163 5 -199 63
-123 231 -119 296 6 7 13 13 56 13 96 1 129 -55 196 -162 194 -31 0 -63 -3
-71 -6z m110 -73 c42 -22 54 -142 20 -197 -17 -29 -25 -33 -60 -33 -35 0 -43
4 -60 33 -33 54 -23 164 17 195 20 14 57 16 83 2z"/>
<path d="M6347 2423 c-4 -3 -7 -19 -7 -35 0 -25 3 -28 35 -28 l35 0 0 -120 0
-120 -40 0 c-39 0 -40 -1 -40 -35 l0 -35 125 0 125 0 0 35 c0 35 0 35 -46 35
l-47 0 5 83 c8 117 31 157 92 157 28 0 46 -18 46 -47 0 -20 5 -23 41 -23 l42
0 -6 47 c-7 64 -40 93 -105 93 -57 0 -89 -20 -100 -63 l-9 -32 -8 48 -7 47
-62 0 c-35 0 -66 -3 -69 -7z"/>
<path d="M6800 2395 l0 -35 60 0 60 0 0 -120 0 -120 -70 0 -70 0 0 -35 0 -35
171 0 170 0 -3 33 c-3 32 -4 32 -60 35 l-58 3 0 154 0 155 -100 0 -100 0 0
-35z"/>
<path d="M7245 2408 c-42 -33 -65 -92 -65 -170 0 -113 38 -175 117 -192 40 -9
109 9 122 32 17 29 14 -34 -4 -67 -18 -35 -51 -48 -138 -54 -37 -3 -70 -6 -71
-8 -2 -2 -1 -19 2 -38 l5 -34 86 7 c112 9 163 32 190 90 19 39 21 61 21 249
l0 207 -35 0 c-31 0 -35 -3 -35 -25 0 -14 -2 -25 -5 -25 -2 0 -15 11 -29 25
-34 34 -120 36 -161 3z m160 -73 c22 -22 25 -33 25 -104 0 -88 -9 -105 -60
-116 -37 -8 -80 12 -98 45 -18 34 -11 140 11 174 24 36 87 37 122 1z"/>
<path d="M7620 2290 c0 -197 23 -243 121 -244 45 -1 54 3 80 32 l29 32 0 -30
0 -30 65 0 65 0 0 35 c0 31 -3 35 -25 35 l-25 0 0 155 0 155 -39 0 -39 0 -4
-134 c-4 -156 -13 -176 -79 -176 -61 0 -69 21 -69 177 l0 133 -40 0 -40 0 0
-140z"/>
<path d="M8112 2410 c-51 -31 -75 -95 -70 -186 2 -54 9 -80 24 -101 48 -65
124 -91 229 -78 47 6 55 10 55 29 0 38 -15 49 -56 43 -61 -7 -131 11 -154 40
-11 14 -20 29 -20 34 0 5 55 10 123 11 l122 3 -1 60 c-2 112 -52 165 -159 165
-43 0 -70 -6 -93 -20z"/>
<path d="M8553 2423 c-30 -6 -71 -46 -79 -77 -16 -65 19 -106 109 -130 95 -26
117 -37 117 -57 0 -30 -35 -40 -133 -38 l-92 2 -3 -35 c-3 -34 -1 -35 35 -41
97 -17 212 2 250 39 18 18 23 34 23 72 0 65 -22 84 -130 115 -62 18 -86 30
-89 43 -6 32 27 44 121 44 l88 0 0 35 0 35 -97 -1 c-54 -1 -108 -4 -120 -6z"/>
<path d="M970 950 c0 -133 1 -140 20 -140 18 0 20 7 20 60 l0 60 50 0 50 0 0
-60 c0 -53 2 -60 20 -60 19 0 20 7 20 140 0 132 -1 140 -20 140 -16 0 -19 -8
-22 -57 l-3 -58 -47 -3 -48 -3 0 60 c0 54 -2 61 -20 61 -19 0 -20 -7 -20 -140z"/>
<path d="M2610 950 l0 -140 95 0 c88 0 95 1 95 20 0 18 -7 20 -75 20 l-75 0 0
40 0 40 55 0 c48 0 55 2 55 20 0 18 -7 20 -55 20 l-55 0 0 40 0 40 75 0 c68 0
75 2 75 20 0 19 -7 20 -95 20 l-95 0 0 -140z"/>
<path d="M4480 951 l0 -141 58 0 c67 0 117 25 133 68 6 15 9 55 7 90 -3 52 -9
67 -31 89 -23 23 -37 28 -97 31 l-70 4 0 -141z m117 84 c26 -18 44 -76 36
-116 -7 -35 -30 -57 -71 -65 l-32 -6 0 101 c0 98 1 101 23 101 12 0 32 -7 44
-15z"/>
<path d="M1553 1019 c-12 -4 -26 -16 -32 -26 -10 -16 -10 -16 -11 5 0 19 -5
22 -40 22 -33 0 -40 -3 -40 -20 0 -13 7 -20 20 -20 18 0 20 -7 20 -65 0 -63
-1 -65 -25 -65 -18 0 -25 -5 -25 -20 0 -18 7 -20 76 -20 66 0 75 2 72 18 -2 9
-13 18 -26 20 -19 3 -22 9 -22 48 0 25 5 54 10 65 14 25 50 25 57 -1 6 -21 37
-27 48 -10 9 15 -17 62 -40 70 -11 4 -30 4 -42 -1z"/>
<path d="M1975 1014 c-14 -7 -25 -9 -25 -3 0 5 -9 9 -20 9 -19 0 -20 -7 -20
-105 0 -98 1 -105 20 -105 18 0 20 7 20 59 0 80 13 111 44 111 34 0 46 -26 46
-104 0 -59 2 -66 20 -66 18 0 20 7 20 83 0 91 -13 121 -55 129 -14 3 -36 -1
-50 -8z"/>
<path d="M2192 1022 c-38 -6 -64 -58 -59 -119 5 -66 27 -93 77 -93 20 0 41 5
48 12 9 9 12 9 12 -3 0 -32 -27 -53 -76 -58 -34 -4 -49 -10 -49 -21 0 -20 77
-26 117 -9 43 18 51 43 56 172 l4 117 -26 0 c-14 0 -26 -5 -26 -11 0 -8 -4 -8
-12 -2 -19 15 -40 19 -66 15z"/>
<path d="M3165 1022 c-11 -2 -26 -9 -32 -14 -9 -7 -13 -7 -13 1 0 6 -9 11 -20
11 -19 0 -20 -7 -20 -150 l0 -150 25 0 c23 0 25 3 25 48 l0 47 44 -3 c34 -3
49 1 64 16 47 47 33 166 -23 187 -16 6 -39 10 -50 7z"/>
<path d="M3422 1019 c-12 -5 -22 -14 -22 -21 -1 -8 -5 -7 -14 5 -8 10 -26 17
-45 17 -24 0 -31 -4 -31 -20 0 -11 7 -20 15 -20 12 0 15 -14 15 -65 0 -58 -2
-65 -20 -65 -13 0 -20 -7 -20 -20 0 -18 7 -20 70 -20 63 0 70 2 70 20 0 15 -7
20 -25 20 -22 0 -25 4 -25 40 0 55 18 90 46 90 14 0 25 -8 29 -20 9 -29 45
-26 45 3 0 45 -43 72 -88 56z"/>
<path d="M3615 1022 c-54 -11 -86 -83 -65 -147 15 -47 48 -65 116 -65 47 0 55
3 50 16 -3 9 -6 18 -6 20 0 2 -20 4 -43 4 -40 0 -77 21 -77 43 0 4 32 7 70 7
49 0 70 4 70 13 0 24 -21 86 -31 92 -19 12 -64 21 -84 17z"/>
<path d="M3870 1022 c-55 -6 -71 -14 -81 -39 -14 -38 10 -69 68 -85 71 -20 64
-42 -14 -46 -55 -3 -63 -6 -63 -22 0 -18 7 -20 70 -20 57 0 74 4 90 20 38 38
19 84 -43 101 -84 25 -85 49 -1 49 46 0 54 3 54 19 0 20 -31 29 -80 23z"/>
<path d="M4088 1020 c-48 -9 -68 -26 -68 -60 0 -35 13 -45 73 -61 35 -8 47
-16 45 -28 -2 -12 -17 -17 -61 -19 -49 -3 -57 -6 -57 -22 0 -18 7 -20 63 -20
75 0 107 18 107 59 0 34 -22 54 -78 70 -57 16 -49 35 19 41 41 4 55 9 57 23 2
11 -3 17 -16 17 -11 0 -26 2 -34 4 -7 2 -30 0 -50 -4z"/>
<path d="M5261 1019 c-44 -6 -71 -28 -71 -58 0 -29 17 -43 71 -61 75 -24 72
-44 -8 -48 -55 -3 -63 -6 -63 -22 0 -18 7 -20 59 -20 73 0 107 12 114 40 11
43 -8 68 -68 85 -71 21 -67 39 8 43 48 2 57 6 57 21 0 22 -34 29 -99 20z"/>
<path d="M1220 1000 c0 -16 7 -20 30 -20 l30 0 0 -64 0 -65 -37 -3 c-27 -2
-39 -8 -41 -20 -3 -16 6 -18 92 -18 89 0 96 1 96 20 0 16 -7 20 -30 20 l-30 0
0 85 0 85 -55 0 c-48 0 -55 -2 -55 -20z"/>
<path d="M1682 1003 c2 -12 14 -19 36 -21 l32 -3 0 -65 0 -64 -40 0 c-33 0
-40 -3 -40 -20 0 -19 7 -20 95 -20 88 0 95 1 95 20 0 16 -7 20 -30 20 l-30 0
0 85 0 85 -61 0 c-52 0 -60 -2 -57 -17z"/>
<path d="M2840 1014 c0 -3 14 -25 30 -49 17 -24 30 -46 30 -50 0 -4 -13 -26
-30 -50 -16 -24 -30 -46 -30 -49 0 -9 50 -7 50 2 1 4 10 18 21 31 l20 24 27
-32 c19 -23 34 -32 50 -30 21 4 21 5 -14 55 l-36 51 37 52 37 51 -26 0 c-17 0
-33 -10 -48 -30 -12 -16 -24 -30 -28 -30 -3 0 -14 14 -23 30 -12 20 -26 30
-43 30 -13 0 -24 -3 -24 -6z"/>
<path d="M4741 994 c-12 -15 -22 -38 -22 -53 -4 -98 26 -131 121 -131 43 0 50
3 50 20 0 17 -7 20 -43 20 -44 0 -92 24 -82 41 4 5 36 9 72 9 l66 0 -6 41 c-8
59 -30 79 -88 79 -39 0 -51 -4 -68 -26z"/>
<path d="M4942 1008 c3 -7 20 -55 38 -106 33 -92 33 -93 64 -90 29 3 33 8 63
93 38 109 39 117 11 113 -17 -2 -27 -19 -48 -83 l-27 -80 -27 83 c-25 74 -30
82 -53 82 -16 0 -23 -5 -21 -12z"/>
</g>
</svg>
